HIERARCHY
ROOT Hips
{
	OFFSET 0.000000 97.167313 0.000000
	CHANNELS 6 Xposition Yposition Zposition Xrotation Yrotation Zrotation
	JOINT Spine
	{
		OFFSET 0.000000 13.784798 0.064400
		CHANNELS 3 Xrotation Yrotation Zrotation
		JOINT Spine1
		{
			OFFSET 0.000000 12.037903 0.404700
			CHANNELS 3 Xrotation Yrotation Zrotation
			JOINT Spine2
			{
				OFFSET 0.000000 17.795601 0.420200
				CHANNELS 3 Xrotation Yrotation Zrotation
				JOINT Neck
				{
					OFFSET 0.000000 39.131302 11.954600
					CHANNELS 3 Xrotation Yrotation Zrotation
					JOINT Head
					{
						OFFSET 0.000000 14.456192 15.627699
						CHANNELS 3 Xrotation Yrotation Zrotation
						JOINT HeadTop_End
						{
							OFFSET 0.000000 15.703506 7.603401
							CHANNELS 3 Xrotation Yrotation Zrotation
							End Site
							{
								OFFSET 0.000000 17.447403 0.000000
							}
						}
					}
				}
				JOINT LeftShoulder
				{
					OFFSET 17.399500 24.608795 1.168800
					CHANNELS 3 Xrotation Yrotation Zrotation
					JOINT LeftArm
					{
						OFFSET 18.980635 5.765305 1.818600
						CHANNELS 3 Xrotation Yrotation Zrotation
						JOINT LeftForeArm
						{
							OFFSET 49.290169 0.000000 0.000000
							CHANNELS 3 Xrotation Yrotation Zrotation
							JOINT LeftHand
							{
								OFFSET 31.562012 0.000000 0.000000
								CHANNELS 3 Xrotation Yrotation Zrotation
								JOINT LeftHandThumb1
								{
									OFFSET 6.133995 -4.388519 7.076070
									CHANNELS 3 Xrotation Yrotation Zrotation
									JOINT LeftHandThumb2
									{
										OFFSET 6.037666 -3.485840 3.485847
										CHANNELS 3 Xrotation Yrotation Zrotation
										JOINT LeftHandThumb3
										{
											OFFSET 6.496506 -3.750763 3.750761
											CHANNELS 3 Xrotation Yrotation Zrotation
											JOINT LeftHandThumb4
											{
												OFFSET 5.616882 -3.242905 3.242910
												CHANNELS 3 Xrotation Yrotation Zrotation
												End Site
												{
													OFFSET -1.254608 7.132141 0.375429
												}
											}
										}
									}
								}
								JOINT LeftHandPinky1
								{
									OFFSET 18.920792 -0.453171 -11.426712
									CHANNELS 3 Xrotation Yrotation Zrotation
									JOINT LeftHandPinky2
									{
										OFFSET 4.919586 0.000000 0.000000
										CHANNELS 3 Xrotation Yrotation Zrotation
										JOINT LeftHandPinky3
										{
											OFFSET 5.233047 0.000000 0.000000
											CHANNELS 3 Xrotation Yrotation Zrotation
											JOINT LeftHandPinky4
											{
												OFFSET 5.571716 0.000000 0.000000
												CHANNELS 3 Xrotation Yrotation Zrotation
												End Site
												{
													OFFSET -3.459808 4.342407 -0.466164
												}
											}
										}
									}
								}
								JOINT LeftHandRing1
								{
									OFFSET 22.726120 -0.094986 -6.500475
									CHANNELS 3 Xrotation Yrotation Zrotation
									JOINT LeftHandRing2
									{
										OFFSET 6.408615 0.000000 0.000000
										CHANNELS 3 Xrotation Yrotation Zrotation
										JOINT LeftHandRing3
										{
											OFFSET 6.150223 0.000000 0.000000
											CHANNELS 3 Xrotation Yrotation Zrotation
											JOINT LeftHandRing4
											{
												OFFSET 6.145386 0.000000 0.000000
												CHANNELS 3 Xrotation Yrotation Zrotation
												End Site
												{
													OFFSET -3.671402 4.923981 -0.202372
												}
											}
										}
									}
								}
								JOINT LeftHandMiddle1
								{
									OFFSET 23.373947 0.000000 0.000001
									CHANNELS 3 Xrotation Yrotation Zrotation
									JOINT LeftHandMiddle2
									{
										OFFSET 6.996567 0.000000 0.000000
										CHANNELS 3 Xrotation Yrotation Zrotation
										JOINT LeftHandMiddle3
										{
											OFFSET 7.015945 0.000000 0.000000
											CHANNELS 3 Xrotation Yrotation Zrotation
											JOINT LeftHandMiddle4
											{
												OFFSET 7.721573 0.000000 0.000000
												CHANNELS 3 Xrotation Yrotation Zrotation
												End Site
												{
													OFFSET -4.651108 6.158463 0.251582
												}
											}
										}
									}
								}
								JOINT LeftHandIndex1
								{
									OFFSET 21.310577 -0.490082 6.209344
									CHANNELS 3 Xrotation Yrotation Zrotation
									JOINT LeftHandIndex2
									{
										OFFSET 7.536453 0.000000 0.000000
										CHANNELS 3 Xrotation Yrotation Zrotation
										JOINT LeftHandIndex3
										{
											OFFSET 7.512344 0.000000 0.000000
											CHANNELS 3 Xrotation Yrotation Zrotation
											JOINT LeftHandIndex4
											{
												OFFSET 10.212402 0.000000 0.000001
												CHANNELS 3 Xrotation Yrotation Zrotation
												End Site
												{
													OFFSET -5.180801 8.690506 1.388433
												}
											}
										}
									}
								}
							}
						}
					}
				}
				JOINT RightShoulder
				{
					OFFSET -17.399500 24.608795 1.168800
					CHANNELS 3 Xrotation Yrotation Zrotation
					JOINT RightArm
					{
						OFFSET -18.980635 5.765305 1.818600
						CHANNELS 3 Xrotation Yrotation Zrotation
						JOINT RightForeArm
						{
							OFFSET -49.290169 0.000000 0.000000
							CHANNELS 3 Xrotation Yrotation Zrotation
							JOINT RightHand
							{
								OFFSET -31.562012 0.000000 0.000000
								CHANNELS 3 Xrotation Yrotation Zrotation
								JOINT RightHandThumb1
								{
									OFFSET -6.133995 -4.388519 7.076070
									CHANNELS 3 Xrotation Yrotation Zrotation
									JOINT RightHandThumb2
									{
										OFFSET -6.037666 -3.485840 3.485847
										CHANNELS 3 Xrotation Yrotation Zrotation
										JOINT RightHandThumb3
										{
											OFFSET -6.496506 -3.750763 3.750761
											CHANNELS 3 Xrotation Yrotation Zrotation
											JOINT RightHandThumb4
											{
												OFFSET -5.616882 -3.242905 3.242910
												CHANNELS 3 Xrotation Yrotation Zrotation
												End Site
												{
													OFFSET 1.254608 7.132141 0.375429
												}
											}
										}
									}
								}
								JOINT RightHandIndex1
								{
									OFFSET -21.310577 -0.490082 6.209344
									CHANNELS 3 Xrotation Yrotation Zrotation
									JOINT RightHandIndex2
									{
										OFFSET -7.536453 0.000000 0.000000
										CHANNELS 3 Xrotation Yrotation Zrotation
										JOINT RightHandIndex3
										{
											OFFSET -7.512344 0.000000 0.000000
											CHANNELS 3 Xrotation Yrotation Zrotation
											JOINT RightHandIndex4
											{
												OFFSET -10.212402 0.000000 0.000001
												CHANNELS 3 Xrotation Yrotation Zrotation
												End Site
												{
													OFFSET 5.180801 8.690506 1.388433
												}
											}
										}
									}
								}
								JOINT RightHandMiddle1
								{
									OFFSET -23.373947 0.000000 0.000001
									CHANNELS 3 Xrotation Yrotation Zrotation
									JOINT RightHandMiddle2
									{
										OFFSET -6.996567 0.000000 0.000000
										CHANNELS 3 Xrotation Yrotation Zrotation
										JOINT RightHandMiddle3
										{
											OFFSET -7.015945 0.000000 0.000000
											CHANNELS 3 Xrotation Yrotation Zrotation
											JOINT RightHandMiddle4
											{
												OFFSET -7.721573 0.000000 0.000000
												CHANNELS 3 Xrotation Yrotation Zrotation
												End Site
												{
													OFFSET 4.651108 6.158463 0.251582
												}
											}
										}
									}
								}
								JOINT RightHandRing1
								{
									OFFSET -22.726120 -0.094986 -6.500475
									CHANNELS 3 Xrotation Yrotation Zrotation
									JOINT RightHandRing2
									{
										OFFSET -6.408615 0.000000 0.000000
										CHANNELS 3 Xrotation Yrotation Zrotation
										JOINT RightHandRing3
										{
											OFFSET -6.150223 0.000000 0.000000
											CHANNELS 3 Xrotation Yrotation Zrotation
											JOINT RightHandRing4
											{
												OFFSET -6.145386 0.000000 0.000000
												CHANNELS 3 Xrotation Yrotation Zrotation
												End Site
												{
													OFFSET 3.671402 4.923981 -0.202372
												}
											}
										}
									}
								}
								JOINT RightHandPinky1
								{
									OFFSET -18.920792 -0.453171 -11.426712
									CHANNELS 3 Xrotation Yrotation Zrotation
									JOINT RightHandPinky2
									{
										OFFSET -4.919586 0.000000 0.000000
										CHANNELS 3 Xrotation Yrotation Zrotation
										JOINT RightHandPinky3
										{
											OFFSET -5.233047 0.000000 0.000000
											CHANNELS 3 Xrotation Yrotation Zrotation
											JOINT RightHandPinky4
											{
												OFFSET -5.571716 0.000000 0.000000
												CHANNELS 3 Xrotation Yrotation Zrotation
												End Site
												{
													OFFSET 3.459808 4.342407 -0.466164
												}
											}
										}
									}
								}
							}
						}
					}
				}
			}
		}
	}
	JOINT LeftUpLeg
	{
		OFFSET 19.899099 -7.885101 -3.429500
		CHANNELS 3 Xrotation Yrotation Zrotation
		JOINT LeftLeg
		{
			OFFSET 1.745560 -36.997807 10.304700
			CHANNELS 3 Xrotation Yrotation Zrotation
			JOINT LeftFoot
			{
				OFFSET -1.745558 -29.803308 -13.615400
				CHANNELS 3 Xrotation Yrotation Zrotation
				JOINT LeftToeBase
				{
					OFFSET 1.181900 -18.539904 15.226099
					CHANNELS 3 Xrotation Yrotation Zrotation
					JOINT LeftToe_End
					{
						OFFSET -0.863701 1.402801 16.534700
						CHANNELS 3 Xrotation Yrotation Zrotation
						End Site
						{
							OFFSET 0.000000 16.616566 0.000000
						}
					}
				}
			}
		}
	}
	JOINT RightUpLeg
	{
		OFFSET -19.899099 -7.885101 -3.429500
		CHANNELS 3 Xrotation Yrotation Zrotation
		JOINT RightLeg
		{
			OFFSET -1.745560 -36.997807 10.304700
			CHANNELS 3 Xrotation Yrotation Zrotation
			JOINT RightFoot
			{
				OFFSET 1.745558 -29.803308 -13.615400
				CHANNELS 3 Xrotation Yrotation Zrotation
				JOINT RightToeBase
				{
					OFFSET -1.181900 -18.539904 15.226099
					CHANNELS 3 Xrotation Yrotation Zrotation
					JOINT RightToe_End
					{
						OFFSET 0.863701 1.402801 16.534700
						CHANNELS 3 Xrotation Yrotation Zrotation
						End Site
						{
							OFFSET 0.000000 16.616566 0.000000
						}
					}
				}
			}
		}
	}
}
MOTION
Frames: 4
Frame Time: 0.033333
1.551083 61.759842 1.744379 16.305403 -10.653376 -3.982748 11.282626 16.698967 -10.296409 2.869508 4.087943 -0.126405 2.861614 4.312287 -0.311450 -0.688856 -2.356464 4.369683 -6.951131 -9.322004 11.106349 0.000001 -0.000000 -0.000001 1.124722 -1.331170 -15.116539 -9.590852 31.513188 -40.008383 0.000010 -10.721287 -0.000013 15.668217 -19.583486 20.990295 -5.456656 -6.701464 3.223886 8.082737 27.604831 1.098172 -10.010001 -14.023293 7.752109 0.000000 0.000004 -0.000001 0.229225 4.355125 -33.121179 0.780411 2.923313 -29.888659 0.780007 2.922630 -29.880845 -0.000000 0.000000 -0.000002 0.028217 3.645196 -26.113058 0.502177 2.375009 -23.874325 0.587676 2.559343 -25.860517 -0.000000 0.000000 0.000003 -1.264328 -0.680476 -18.650048 0.387936 2.098224 -20.947886 0.466475 2.292740 -22.997814 -0.000001 -0.000001 0.000001 -1.847717 -6.069245 -12.586960 0.237187 1.651690 -16.342792 0.250137 1.695205 -16.786220 0.000000 -0.000000 0.000001 2.870358 11.957097 -6.152313 -33.803726 70.877556 6.927865 -0.000137 94.709582 0.000197 17.111808 20.467044 -11.105445 -15.299424 26.937079 3.983079 9.846914 -45.621651 -5.486200 -7.056232 3.101020 -14.195940 -0.000001 -0.000003 0.000005 0.530847 -4.798260 13.845687 0.169905 -1.247742 15.507861 0.169802 -1.247365 15.503218 -0.000000 -0.000001 -0.000001 1.576764 -6.016273 32.822276 0.816453 -2.636002 34.413638 0.910233 -2.767787 36.402825 0.000001 0.000000 -0.000004 2.347858 -6.542672 43.827398 1.218018 -3.142191 42.367882 1.329186 -3.259707 44.358472 -0.000002 0.000001 -0.000005 3.146671 -6.893221 54.105525 1.765790 -3.652472 51.591445 1.765247 -3.652024 51.582685 -0.000000 0.000002 0.000008 -92.514926 -0.500660 -0.081779 42.508335 13.586645 1.812584 25.111496 26.148194 13.807344 -4.481356 0.000002 -0.000006 0.000000 -0.000002 0.000000 31.778790 -4.943942 5.810648 26.864567 -7.603013 10.232991 -32.825667 -18.171397 15.162076 -42.282406 -0.000012 -0.000011 0.000000 -0.000003 -0.000001 
1.119586 61.996437 8.757149 18.132508 -7.289420 -0.861652 7.002913 15.468615 -8.879371 2.075387 7.855594 -3.875633 2.046845 8.303004 -4.350215 1.476581 -2.653092 2.922548 -1.733390 -20.706972 13.655469 -0.000000 0.000000 -0.000000 1.042169 8.563895 -16.568400 -11.361174 38.513285 -36.085740 -0.000001 -7.206124 0.000002 -6.997161 -9.873418 14.965824 -9.956500 -18.703974 -1.224352 6.713396 19.000241 0.558759 -9.601190 -12.493848 8.254173 0.000001 -0.000001 -0.000002 -0.708633 2.772337 -31.760065 0.446802 2.245857 -22.500899 0.200370 1.520511 -15.012368 0.000000 0.000000 -0.000006 -0.261722 2.774640 -22.935796 0.192995 1.492800 -14.732190 0.181917 1.450004 -14.300654 -0.000001 0.000000 0.000003 -0.949756 -0.235163 -16.618342 0.149258 1.315306 -12.947401 0.074630 0.933107 -9.145144 0.000001 0.000000 0.000004 -0.799918 -6.042859 -6.558046 0.078938 0.959466 -9.405825 0.051527 0.776147 -7.596626 -0.000000 0.000002 -0.000003 2.900859 13.451885 -9.530000 -51.048322 62.757930 19.603232 0.000090 76.968316 -0.000069 25.862115 26.842669 -29.054105 -14.916720 26.846246 4.062813 9.121870 -37.143194 -4.975576 -8.054548 2.948283 -14.909956 0.000000 0.000003 -0.000003 -0.494512 0.995011 9.723071 0.100112 -0.961436 11.888305 0.050006 -0.681411 8.395313 0.000002 -0.000001 -0.000001 -0.076959 -2.955163 23.421187 0.485794 -2.072765 26.377590 0.589957 -2.270601 29.125805 -0.000000 0.000000 -0.000004 2.416452 -7.352445 32.377323 0.729203 -2.504009 32.467700 0.851842 -2.686876 35.175614 -0.000002 -0.000001 -0.000007 5.616170 -10.475038 41.521847 1.119741 -3.031082 40.542852 1.067517 -2.969043 39.545040 0.000002 0.000001 0.000002 -92.075984 2.915389 -3.508381 51.303463 15.046222 1.324004 15.040077 24.160128 12.513039 -4.480771 -0.000011 0.000000 0.000001 0.000001 -0.000000 34.356015 -4.910410 6.857626 20.451504 -9.304471 8.991691 -24.042992 -24.226852 14.855088 -41.474425 -0.000002 -0.000007 -0.000000 0.000005 0.000000 
0.516271 62.992691 15.203440 19.813276 -3.553442 2.113922 3.414910 13.937148 -7.620675 1.813247 11.227689 -7.424546 1.784203 11.639068 -7.833938 3.386596 -2.475949 1.720164 4.104729 -29.979852 16.745090 -0.000000 0.000000 0.000000 1.903016 16.403555 -18.113172 -13.609474 43.503824 -31.096072 -0.000002 -4.978385 0.000009 -27.337018 -3.912200 17.189211 -15.448853 -29.254052 -6.598890 5.461372 11.276726 -0.122971 -9.178383 -10.830900 8.782385 -0.000000 0.000001 0.000000 -1.523749 1.227194 -30.446272 0.219303 1.589466 -15.710586 0.000986 0.107462 -1.048661 -0.000000 0.000003 -0.000003 -0.451141 1.956375 -19.920873 0.037445 0.662077 -6.474714 0.011705 0.370457 -3.617637 -0.000001 -0.000001 0.000003 -0.670544 0.266337 -14.666581 0.029103 0.583883 -5.707383 0.011557 -0.368178 3.595225 0.000001 0.000001 0.000007 0.103889 -5.910343 -0.929689 0.011401 0.365588 -3.570028 0.000769 -0.095086 0.927972 0.000000 0.000003 0.000002 3.089987 14.920558 -12.423691 -59.466263 55.554887 22.662067 0.000028 60.460022 -0.000017 38.045578 29.736571 -46.855531 -14.619542 26.747840 4.252031 8.306609 -28.268724 -4.355135 -9.124803 2.814471 -15.677472 0.000002 0.000000 0.000002 -0.688459 7.252819 5.537587 0.044003 -0.639354 7.873614 0.000179 -0.041705 0.511982 -0.000000 -0.000003 0.000004 -0.798929 0.665461 13.790979 0.215356 -1.401249 17.474199 0.328060 -1.718614 21.612431 0.000002 0.000000 -0.000004 2.020428 -8.411402 20.269187 0.324609 -1.709877 21.496666 0.459271 -2.018473 25.634993 -0.000000 -0.000000 0.000002 6.443767 -15.584294 28.514966 0.575607 -2.244699 28.761892 0.507227 -2.115418 26.964180 0.000002 -0.000004 0.000002 -88.794659 5.979403 -6.894643 56.275971 16.021660 0.711543 6.346016 22.103740 10.879348 -4.501496 -0.000005 0.000001 -0.000000 0.000005 0.000000 29.374011 -5.605197 4.856805 21.393846 -8.450399 9.232077 -4.573213 -23.703511 16.446368 -50.591918 -8.085335 17.488810 0.000000 0.000001 -0.000000 
0.222742 64.337463 20.945604 20.079158 0.535689 4.029015 1.346618 12.225984 -6.879744 1.814103 13.256260 -9.761675 1.768314 13.331352 -9.765641 5.004653 -1.582097 1.079837 9.626621 -33.979634 19.382924 0.000001 0.000000 0.000000 3.160979 20.793613 -20.339682 -15.951798 44.848173 -24.876254 -0.000002 -4.691359 0.000005 -43.211141 -5.246728 23.072067 -20.577159 -36.441723 -11.450919 4.636670 6.372170 -0.658596 -8.745255 -9.037333 9.331505 -0.000001 0.000002 -0.000003 -1.999594 0.172523 -29.130497 0.100095 1.079423 -10.594950 0.076211 -0.942806 9.240930 -0.000001 0.000001 -0.000004 -0.483436 1.477823 -17.304114 0.001377 0.126822 -1.237715 0.020020 -0.484594 4.734375 0.000001 -0.000001 -0.000002 -0.433727 0.819276 -12.891150 0.001066 0.111535 -1.088636 0.131504 -1.235619 12.150400 -0.000002 -0.000001 0.000008 0.777717 -5.831224 3.561388 0.000105 0.034549 -0.337095 0.051513 -0.775993 7.595093 -0.000001 0.000001 0.000001 3.333442 16.423555 -13.459700 -59.898000 49.632495 20.504318 0.000030 47.686704 -0.000035 48.815201 30.170458 -59.910253 -14.695273 27.256181 4.782200 7.543179 -19.575956 -3.679029 -10.251807 2.706942 -16.486808 -0.000001 0.000002 0.000003 -0.077694 13.387483 1.702622 0.011901 -0.332937 4.090632 0.033971 0.562108 -6.917155 -0.000001 0.000000 0.000001 -0.543088 4.297508 5.302185 0.058615 -0.737320 9.089601 0.143277 -1.147460 14.233681 -0.000001 -0.000005 -0.000004 1.242792 -9.457439 9.777458 0.088369 -0.903804 11.166238 0.187207 -1.308461 16.283280 -0.000001 -0.000004 -0.000000 5.423302 -21.113296 17.009512 0.206284 -1.372130 17.099589 0.151968 -1.181175 14.661141 0.000003 -0.000001 -0.000001 -82.915218 8.764359 -10.588215 58.635883 16.119141 0.463522 -1.208799 19.865482 9.969549 -4.499028 0.000010 -0.000006 0.000000 0.000001 -0.000000 18.559084 -7.637786 3.076314 26.870838 -5.468410 9.917493 21.664487 -17.316469 13.339170 23.425151 -27.954899 -57.080967 0.000000 0.000001 0.000001 
